<svg xmlns="http://www.w3.org/2000/svg" viewBox="0 0 256 256" fill="none">
	<path d="M256 128H0v100c0 15.464 12.536 28 28 28h200c15.464 0 28-12.536 28-28V128z" fill="#000" />
	<path
		d="M107.684 37.25c0 5.684 2.333 10.822 6.095 14.509v41.906L84.147 64.034c.052-5.267-1.931-10.551-5.95-14.57-7.934-7.934-20.799-7.934-28.733 0s-7.934 20.799 0 28.733c4.019 4.019 9.303 6.002 14.57 5.95l29.632 29.632H51.759c-3.687-3.761-8.826-6.095-14.51-6.095a20.32 20.32 0 0 0-20.317 20.317c0 11.221 9.096 20.318 20.317 20.318 5.684 0 10.822-2.334 14.51-6.095h41.906l-29.632 29.632c-5.267-.053-10.551 1.931-14.57 5.949-7.934 7.935-7.934 20.799 0 28.734s20.799 7.934 28.733 0c4.019-4.019 6.002-9.303 5.95-14.57l29.632-29.632v41.906c-3.762 3.687-6.095 8.826-6.095 14.51a20.32 20.32 0 0 0 20.317 20.317 20.32 20.32 0 0 0 20.317-20.317c0-5.684-2.333-10.823-6.095-14.51v-41.906l29.632 29.632c-.052 5.267 1.931 10.551 5.95 14.57 7.935 7.934 20.799 7.934 28.733 0a20.32 20.32 0 0 0 0-28.733 20.25 20.25 0 0 0-14.569-5.95l-29.632-29.632h41.906c3.687 3.761 8.826 6.095 14.509 6.095 11.221 0 20.318-9.097 20.318-20.318s-9.097-20.317-20.318-20.317c-5.683 0-10.822 2.334-14.509 6.095h-41.907l29.633-29.632c5.267.052 10.551-1.931 14.569-5.95a20.32 20.32 0 0 0 0-28.733c-7.934-7.934-20.798-7.934-28.733 0-4.019 4.019-6.002 9.303-5.95 14.57l-29.632 29.632V51.76c3.762-3.687 6.096-8.826 6.096-14.509 0-11.221-9.097-20.318-20.318-20.318a20.32 20.32 0 0 0-20.317 20.318z"
		fill="#ffb13b" />
	<g fill="#000">
		<path fill-rule="evenodd"
			d="M113.778 51.758c-3.762-3.687-6.095-8.826-6.095-14.51A20.32 20.32 0 0 1 128 16.931a20.32 20.32 0 0 1 20.317 20.318c0 5.684-2.333 10.822-6.095 14.51v41.906l29.632-29.632c-.052-5.267 1.931-10.551 5.95-14.57 7.935-7.934 20.799-7.934 28.733 0a20.32 20.32 0 0 1 0 28.733 20.25 20.25 0 0 1-14.569 5.95l-29.633 29.633h41.907c3.687-3.762 8.826-6.095 14.509-6.095 11.221 0 20.318 9.096 20.318 20.317s-9.097 20.317-20.318 20.317c-5.683 0-10.822-2.333-14.509-6.095h-41.907l29.633 29.632c5.267-.052 10.551 1.931 14.569 5.95a20.32 20.32 0 0 1-28.733 28.733c-4.019-4.018-6.002-9.302-5.95-14.569l-29.632-29.633v41.907c3.762 3.687 6.095 8.826 6.095 14.509 0 11.221-9.096 20.318-20.317 20.318s-20.317-9.097-20.317-20.318c0-5.683 2.333-10.822 6.095-14.509v-41.907l-29.633 29.633c.052 5.267-1.931 10.55-5.95 14.569a20.32 20.32 0 0 1-28.733 0c-7.934-7.934-7.934-20.798 0-28.733 4.019-4.019 9.303-6.002 14.57-5.95l29.632-29.632H51.758c-3.687 3.762-8.826 6.095-14.51 6.095A20.32 20.32 0 0 1 16.931 128a20.32 20.32 0 0 1 20.318-20.317c5.684 0 10.822 2.333 14.51 6.095h41.906L64.032 84.146c-5.267.052-10.551-1.931-14.57-5.95-7.934-7.934-7.934-20.799 0-28.733s20.799-7.934 28.733 0c4.019 4.019 6.002 9.303 5.95 14.57l29.633 29.632V51.758zM90.761 38.097l-.593-.606c-14.547-14.547-38.131-14.546-52.678 0s-14.547 38.131 0 52.678l.606.593-.848-.01C16.677 90.751 0 107.428 0 128s16.677 37.249 37.249 37.249l.848-.01-.606.593c-14.547 14.547-14.546 38.131 0 52.678s38.131 14.546 52.678 0l.593-.607-.01.848C90.751 239.323 107.428 256 128 256s37.249-16.677 37.249-37.249l-.01-.848.593.607c14.547 14.546 38.131 14.546 52.678 0s14.546-38.131 0-52.678l-.607-.593.848.01C239.323 165.249 256 148.572 256 128s-16.677-37.249-37.249-37.249l-.848.01.607-.593c14.546-14.547 14.546-38.131 0-52.678s-38.131-14.547-52.678 0l-.593.606.01-.848C165.249 16.677 148.572 0 128 0S90.751 16.677 90.751 37.249l.01.848z" />
		<path d="M256 128H0v100c0 15.464 12.536 28 28 28h200c15.464 0 28-12.536 28-28V128z" fill-opacity=".85" />
	</g>
	<path
		d="M76.19 215.361c0 7.855-6.368 14.222-14.222 14.222s-14.222-6.367-14.222-14.222H28.783c0 18.327 14.858 33.185 33.185 33.185s33.185-14.858 33.185-33.185c0-9.286-3.814-17.681-9.96-23.704-5.985-5.865-14.183-9.481-23.225-9.481-7.855 0-14.222-6.368-14.222-14.223s6.368-14.222 14.222-14.222 14.222 6.368 14.222 14.222h18.963c0-18.327-14.858-33.185-33.185-33.185s-33.185 14.858-33.185 33.185c0 9.286 3.814 17.681 9.96 23.704 5.985 5.865 14.183 9.482 23.225 9.482 7.855 0 14.222 6.367 14.222 14.222zm132.403 0c0 7.855-6.367 14.222-14.222 14.222s-14.222-6.367-14.222-14.222v-47.408c0-7.854 6.367-14.222 14.222-14.222s14.222 6.368 14.222 14.222h18.963c0-18.327-14.857-33.185-33.185-33.185s-33.185 14.858-33.185 33.185v47.408c0 18.327 14.857 33.185 33.185 33.185s33.185-14.858 33.185-33.185v-33.185h-33.185v18.963h14.222v14.222zm-71.054 33.185h-19.086L95.154 134.768h19.357l13.616 66.49 14.017-66.49h19.38l-23.985 113.778z"
		fill="#fff" />
</svg>